<svg xmlns="http://www.w3.org/2000/svg" viewBox="0 0 512 512">
  <defs>
    <style>
      .cls-1 {
        fill: #19e77c;
      }

      .cls-2 {
        fill: #00cb6e;
      }

      .cls-3 {
        fill: #7bf1b4;
      }

      .cls-4 {
        fill: #c1f8dc;
      }
    </style>
  </defs>
  <title>E Commerce_512px</title>
  <g id="Address">
    <g>
      <path class="cls-1" d="M376.679,69.9349v-.00131c-66.65-64.80078-174.70841-64.80078-241.35838,0v.00131c-66.65,64.80078-66.65,169.86458,0,234.66536l48.75,47.39844a163.63856,163.63856,0,0,1,49.98748,117.33463c0,11.78125,9.82313,21.33334,21.94167,21.33334s21.94167-9.55209,21.94167-21.33334A163.63859,163.63859,0,0,1,327.929,351.9987l48.75-47.39844C443.329,239.79948,443.329,134.73568,376.679,69.9349ZM255.99984,256a64,64,0,1,1,64-64A64,64,0,0,1,255.99984,256Z"/>
      <path class="cls-2" d="M255.99984,21.33293A172.64833,172.64833,0,0,1,376.67952,69.93368v.0013c66.64974,64.80062,66.64974,169.8645,0,234.66536h0l-48.75,47.39836-.08821.08569-.028.02735-.05957.058-.03287.032-.05567.05453-.03418.0332-.05762.0564-.02832.02775-.06315.06168-.027.02678c-.0586.05729-.11491.11246-.17318.16992l-.02995.0293-.06087.06-.02832.02792-.05664.05574-.03614.03556-.0524.05168-.03614.03565-.054.05346-.03158.03125-.071.07023-.0166.01644-.08594.085-.03223.03215-.05306.05265-.03613.03589-.05339.05306-.03385.03361-.05664.05664-.02832.02816-.05957.05949-.03093.03084-.069.06869-.01627.01627-.08594.08618-.02767.02776-.05892.059-.03678.03694-.04688.04688-.041.04118-.04753.04793-.03874.03874-.04882.04939-.03614.03622-.06022.06087-.02572.026-.08365.08431-.03158.03207-.054.0546-.03873.03915-.04558.04614-.04362.04427-.04231.043-.03972.0402-.05143.05225-.03385.03458-.0625.06364-.02214.02222-.08529.08724-.01822.01839-.06967.07113-.02474.02523-.05924.0607-.03288.03353-.05208.05355-.03744.03833-.04557.04663-.03939.04037-.05436.05607-.02962.03019-.083.08561-.02734.02808-.057.05859-.03613.03752-.04948.051-.03646.03752-.04948.05111-.03613.03759-.04753.04908-.03939.04077-.04589.04761-.03809.03938-.06055.06315-.04817.04989-.057.05916-.03418.03589-.0498.05176-.03679.03841-.0485.0507-.03711.03858-.0485.05078-.03451.03621-.055.05737-.03027.03166-.07162.0752-.0192.01994-.07585.07991-.027.0284-.05794.06063-.03321.03491-.0498.05257-.0345.03654-.05046.053-.03613.03825-.04818.051-.03483.03662-.05176.055-.05241.05526-.06217.06591-.02507.02686-.05761.061-.03256.03451-.05241.05583-.03255.03458-.05208.05534-.03125.03345-.0599.06388-.02311.02458-.0817.08732-.00163.00163-.085.09082-.01823.01969-.068.07276-.01985.02124-.06478.06966-.02279.02425-.05859.063-.03028.03263-.056.06022-.026.02816-.07324.07886-.00976.01066-.08529.09212-.015.0162-.06413.069-.03516.03816-.05013.05445-.0319.03442-.05208.05664-.03028.03272-.05859.06372-.02376.026-.07129.07739-.0114.01245-.084.09139-.01725.019-.06446.0704-.03027.033-.05306.058-.0293.03206-.05371.05892-.03125.0341-.05436.05973-.027.02946-.06152.06771-.02148.02368c-.055.06022-.1084.11906-.16309.17937l-.03125.03458-.04981.05493-.0371.04086-.04232.04679-.03907.04313-.0472.05225-.03255.03621-.05306.05868-.029.03222-.07975.08854-.01465.01636-.068.07569-.02377.0262-.05892.06576-.02571.0288-.05469.06071-.03223.03606-.04948.05542-.03059.03409-.05762.06446-.02376.02669-.16179.1814-.02506.02823-.05827.06535-.02442.02775-.057.064-.02669.03011-.05762.06478-.02442.02759-.05859.06616-.02311.02628-.16341.1849-.01693.01929-.06348.07194-.02474.02824-.05534.06282-.02962.03369-.05176.05892-.029.033-.05338.06112-.028.032c-.05371.061-.10514.11987-.15853.181l-.02669.03052-.05436.06225-.03027.03459-.04883.05607-.03158.03638-.05273.06079-.02637.03019-.05762.06641-.02278.026-.06576.076-.0153.01766c-.026.02978-.054.06217-.07975.092l-.0166.019-.06543.07576-.01823.02116-.0612.07088-.02539.02946-.055.06372-.02474.02865-.06087.07072-.01888.02222c-.05469.06323-.1071.12435-.16146.18774l-.0127.01473-.069.08065-.01595.01888-.06348.074-.02115.02458-.06218.073-.01758.02067-.06478.076-.016.01864c-.08105.09521-.16178.1901-.24283.28556l-.01433.01693-.06575.07771-.01823.02157-.0638.07536-.016.0188-.06869.08113-.01139.01376c-.08236.09733-.16341.19384-.24544.29134l-.00391.00472-.07292.08683-.01725.02067-.06641.07918-.01237.01465-.07031.0839-.01009.01221q-.12256.14649-.24512.29378v.00025l-.07682.09228-.016.01929-.0625.07528-.01856.02213-.0638.07715-.015.0179c-.08106.098-.15983.1932-.24056.29135l-.00521.0061-.07292.0887-.01367.01636-.068.08293-.0114.01375-.067.08187-.01367.01676-.07618.09278-.0013.00146c-.0804.09839-.16048.19621-.24088.29476l-.0114.01408-.068.0835-.01237.01513-.06608.08138-.01465.018c-.10482.12915-.21061.25968-.3151.38908l-.01172.01416c-.02442.0306-.04558.05664-.07032.08724l-.00683.00838-.07259.09017-.00781.00968-.07585.09457-.00228.00284c-.07975.099-.16178.20126-.24089.30046l-.00195.00236-.07519.09383-.00944.0118-.068.08553-.012.015-.07064.08878-.00651.00806q-.11865.149-.237.29842l-.00586.00724-.07292.092-.00748.00961-.06836.08634-.01237.01587c-.02311.029-.04916.06217-.07194.09123l-.00358.00455c-.1058.13412-.21061.26726-.31576.40162l-.00456.00553-.07259.093-.00748.00952c-.10384.13265-.21.26855-.31315.40153l-.00131.00171-.07747.09985-.0013.00163-.07357.09481-.00879.01139-.07292.09416-.0026.00333q-.15674.20252-.31283.40585l-.002.00244-.07585.09847-.00292.00415c-.15463.20117-.31153.40682-.46517.60864l-.00456.0061c-.15462.20362-.307.40511-.46094.60938l-.00488.00667c-.154.20435-.30567.407-.45866.6119l-.00326.00464-.07421.09969-.00131.00163c-.12793.17179-.25455.34253-.38151.51473l-.00162.00219A163.26618,163.26618,0,0,0,278.992,450.94189a10.66736,10.66736,0,0,1-10.58365,9.45215,10.78274,10.78274,0,0,1-1.22885-.07047,10.66638,10.66638,0,0,1-9.38183-11.81218,186.11292,186.11292,0,0,1,55.26042-111.80826l48.75-47.39836c28.0677-27.289,43.52539-63.52645,43.52539-102.0367,0-38.51115-15.45736-74.74927-43.52507-102.03866-28.23112-27.44718-65.80762-42.56315-105.80859-42.56315h0a153.382,153.382,0,0,0-53.47917,9.54769,10.66662,10.66662,0,1,1-7.41374-20.00358,174.842,174.842,0,0,1,45.887-10.23869l.01269-.00106.11133-.00952.00814-.00065.1123-.00944.00977-.0009.10872-.009.015-.00122.10482-.00871.01888-.00154.10514-.00863.013-.00106.10872-.00887.013-.00106.10775-.0087.0153-.00122.1058-.00847.01627-.0013q.47168-.0376.94369-.07267l.01237-.0009.10937-.00805.01172-.0009.109-.008.01269-.00089.1058-.00773.0179-.00122.09668-.007.02962-.00212.09441-.00667.026-.00187.097-.00684.02442-.00171.09863-.00683.02409-.00171.09538-.00659.03027-.002.09375-.00643.027-.00179.09407-.00643.029-.00195.09538-.00635.02474-.00162.0957-.00635.03093-.002q.34179-.02245.68392-.0437l.01758-.00106.10579-.00651.0153-.00089.09245-.00562.03548-.00219.08464-.00505.03743-.00228.08691-.00513.03646-.00219.08627-.00505.03645-.00211.084-.00489.043-.00244.07812-.00447.04623-.00269.07682-.00431.04752-.00269.07683-.00431.04492-.00244.07812-.0044.04688-.00252.07747-.00423.04232-.00228.08236-.00448.03678-.002.08724-.00464.02735-.00138.097-.00513.00293-.00016c.15365-.008.30957-.016.46354-.02352l.01921-.001.0983-.0048.02474-.00122.0892-.00431.0358-.00171.08366-.004.04069-.002.08008-.00383.0433-.00195.08007-.00374.04558-.00212.07291-.00334.054-.00244.068-.003.05762-.0026.06543-.00285.05827-.00261.06738-.00292.05827-.00253.06413-.00268.06022-.00261.06543-.00276.05762-.00236.06673-.00277.05241-.0022.07487-.003.04-.00163.08268-.00333.04232-.00163.0817-.00326.04818-.00187.07389-.00285.01009-.0004.18327-.00692.05306-.002.06836-.00253.05469-.002.0664-.00236.05957-.00212.06674-.00236.05533-.002.069-.00244.058-.002.06087-.00212.0651-.00212.0573-.002.06933-.00228.057-.00187.06445-.002.06152-.002.06478-.002.05827-.00187.06869-.00212.05436-.00163.07226-.00219.05339-.00163.06543-.00187.0625-.00179.06185-.00179.06087-.0018.06869-.00187.05533-.00154.07064-.002.05534-.00146.06608-.00171.05794-.00155.12305-.00317.02214-.00057.10351-.0026.03874-.0009.085-.00212.05631-.0013.06641-.00154.06315-.00147.06283-.00146.054-.00114.0739-.00171.04883-.00106.07552-.00155.05273-.00113.06869-.00139.06087-.0013.06413-.00122.05794-.00114.06836-.0013.05729-.00106.06575-.00122.06023-.00114.0625-.00106.06315-.00114.06673-.00114.05306-.00089.07584-.00122.05079-.00082.07194-.00114.05306-.00081.07194-.00106.05338-.00081.096-.0013.02539-.00041.11035-.00147.0166-.00024c.08269-.00106.16635-.00212.2487-.003l.04362-.00057.085-.0009.03646-.0004.08626-.0009.04916-.00049.07519-.00073.054-.00049.06966-.00065.054-.00049.07389-.00057.04981-.0004.07389-.00057.05241-.00041.07291-.00049.05306-.00032.06934-.00041.057-.00033.07-.0004.054-.00033.068-.00024.05892-.00033.06706-.00024.05631-.00025.06869-.00016.05664-.00016.06934-.00025.05533-.00008.07618-.00016.0472-.00008c.02929,0,.05957-.00008.08886-.00008l.03646-.00008Z"/>
      <path class="cls-2" d="M180.62508,267.47469A106.66667,106.66667,0,1,0,283.51544,88.969a21.33331,21.33331,0,1,0-10.96188,41.23443q.72119.19172,1.439.40062l.00035.00012.183.05357.006.00184.17879.05277.00731.00236c.05933.01755.11946.03568.17867.05335l.006.00184q.08916.02683.17816.05386l.00771.00242c.05863.01778.11647.03544.17522.05357l.01231.0038c.05674.01738.11406.0351.17085.05288l.0152.0046.08378.02624.00668.00208.07814.02451.01721.00535.08223.02595.00909.00288.07521.02377.01715.00541.08234.02629.012.00369.07073.02273.022.007.078.02509.01916.00615.0629.02043.024.00771.07746.02521.01876.0061.06491.02117.02353.00777.0755.02486.02457.00812.05858.01922.0248.00834.07441.02457.02791.00938.05489.0183.028.00932.07412.02486.02584.00869.05438.01836.02929.00984.07152.02422.02987.01019.0519.01761.03125.01064.06928.02371.03459.01191.04592.01577.03228.011.06767.02348.04.01387.03792.01318.05639.01956.04742.01657.04258.015.03614.01266.04638.01622.05852.02066.03787.01324.04241.01513.05921.02089.041.01467.04373.01566.0347.01225.0667.024.03562.01272.04569.01645.03078.01111.074.02682.03274.01191.046.01663.02658.00978.08166.02975.02561.00938.04649.017.03062.01128.07872.029.02555.00944.048.01778.02917.01088.07452.02768.0301.01133.04759.01779.02411.009.08741.03274.02008.00754.05208.01974.01375.00512.09846.03735.015.00569.05334.02032.01295.005.10065.03839.01329.00512.05553.02135.00127.00057.10829.04178.01629.00627.05311.02054.00858.0034.10041.03907.01922.00748.16331.06411.01525.00592.16516.06549.01421.00558c.05662.02256.11261.04483.16912.0675l.00783.00322.17229.0694.00656.00265c.05639.02279.11566.04684.17217.07l.00788.00317.171.0702.00759.003.17286.07158.00426.00173c.05818.02422.11642.04839.17471.073l.00328.00133.176.074.00127.00057c.05794.02446.11842.05007.17648.07487l.00225.001c.05783.02457.11808.05041.176.07532l.00132.00052q1.39255.59826,2.761,1.26529l.00189.00086q1.63062.79524,3.22342,1.68767l.00207.00115c.05547.03107.11319.06359.16878.095l.00178.001c.05536.03119.11354.06417.169.0957l.0008.00058c.0572.03257.11147.06347.16855.09615l.00265.0015c.05708.03268.11089.06359.168.09667l.00092.00046c.37628.21712.75245.43941,1.12517.6647l.00138.00092c.11129.06733.22062.13385.33163.20192l.006.00369c.0545.03343.10865.06675.16326.10053l.00345.00207c.05438.03355.10835.067.16285.10093l.00541.00334c.05426.03366.10951.06819.16383.10226l.00172.001c.05438.034.10727.06721.1617.10163l.00823.00512c.05421.03418.10548.06669.15957.101l.00593.00374.1575.1003.01208.00771.15681.10053.007.00455.1575.10168.01058.0069.15514.10082.0103.00673c.05208.034.10278.0671.155.10145l.01117.00725c.052.03413.10352.06819.15537.10243l.00805.0053.15635.10375.00938.00627.10191.068.0019.00133.05162.03447.00932.00633.09972.06692.00409.00282.04868.0328.0179.012.09034.06111.00794.00541.05076.03441.00932.00633.0942.06416.01042.00708.04868.03326.015.0103.08361.05726.01882.01295.04638.03187.01415.00979.08638.05956.01582.01087.04731.0328.01277.00886.08942.062.013.00909.04937.03441.006.00414.09155.06405.01761.01232.046.03228.01651.01156.08.05628.02215.0156.04477.03165.01238.0088.08274.05858.02343.01663.04172.02964.02934.02083.06635.04736.02549.01824.04351.03107.00506.00369.08816.06329.026.01865.0412.02969.02618.01893.06819.0492.02694.01957.13517.09823.02664.01939.03994.02912.0271.01985.06831.05.025.0183.06077.04465.0355.02618.03764.02774.02963.02192.05375.03971.03965.02941.037.02744.03193.02377.05277.0393.03982.0297.03637.02716.0324.02422.04552.03413.046.03458.036.02705.03286.02468.05035.038.04246.03211.03275.0248.0393.02975.0366.02785.05208.03954.02975.02273.04362.03326.03809.02912.04874.03734.0305.02337.04166.032.04028.03107.04581.03522.03165.02452.04051.0313.04517.03493.042.03257.03107.02417.04477.03487.03833.02981.04523.03533.02969.02325.04465.035.0431.03377.03994.03142.03171.02492.04914.03878.03551.028.04189.03314.03159.025.0465.03683.03867.03084.04333.03447.02768.022.056.04477.03068.02457.04292.03441.02734.02192.05869.04719.02935.02359.04126.03332.02929.02365.05956.04817.0267.02164.04189.03406.0282.0229.05938.04834.02717.0221.04356.03562.0256.02089.06094.05.02578.02118.044.03614.02549.021.06031.04972.02693.02233.04385.03625.02491.02066.0614.05093.02486.02071.04448.037.02509.02095.06019.05029.02659.02222.04483.03757.023.01934.06174.052.02428.02037.04794.04045.02043.01732.06163.05208.02641.02239.04454.03786.02313.01968.06117.05208.02555.02187.04494.03838.02285.01951.06048.05184.02526.0217.04874.04195.01882.01617.062.05351.02371.02049.05231.04529.01484.01277.0633.055.02268.01968.05731.04994.00932.00818.06635.05794.01841.01612.05962.05225.012.01053.06071.05345.023.02026.05674.05006.01663.01468.05715.05058.02146.019.06341.05628.00979.00863.05789.05167.02117.01888.06422.05731.01.00892.05679.05093.02135.01916.063.05668.01525.01375.05082.04587.02278.02048.06284.05686.015.01358.0511.04649.02342.02124.06215.05662.01444.01318.05174.04724.02186.02.06273.05743.01387.01283.05564.05116.01657.01519.06514.06008.01312.01219.05479.05064.01766.0164.06445.05985.01364.0126.05645.05266.01479.01375.06687.06249.00955.00886.05939.05571.01329.01248.06623.06221.01255.01185.05806.05473.01277.01208.06578.06221.01369.013.05645.05358.01324.01254.06462.06152.01577.01507.05484.05243.01416.01346.06439.06175.015.01444.0561.05392.0122.01174.06445.06215.01548.0149.058.05617.00984.00949.0645.06255.01681.01634.0553.05381.01139.01116.06382.06232.01674.0164.05749.05622.009.00892.06434.06319.01669.01645.05633.05553.01.00984.063.06227.01784.01761.05916.05869.00621.00622.06393.06358.01681.01681.06473.06462h0a64,64,0,0,1,0,90.50967h0a63.99937,63.99937,0,0,1-90.50966,0,21.33333,21.33333,0,0,0-30.16989,30.16989Z"/>
      <path class="cls-3" d="M255.99984,64C189.076,64,132.9904,116.25537,128.31559,182.96452A21.33339,21.33339,0,0,0,148.10531,205.737c.50716.03556,1.01269.05306,1.51334.05306a21.334,21.334,0,0,0,21.25684-19.81047,84.864,84.864,0,0,1,7.02148-28.40893l.00163-.00358.04915-.11141.00033-.00033c.11588-.26188.23568-.52832.35449-.78882l.00228-.00512c.0166-.03687.03255-.07154.04948-.10832l.00195-.00439.04948-.10832.00228-.00472c.01563-.03434.03385-.07365.04981-.108l.00227-.00513.04948-.10718.00293-.00618.04948-.10718.00228-.00464.05078-.10921.00033-.00082c.08659-.18587.17513-.37353.263-.55875l.001-.00212c.01726-.03654.03288-.06942.05046-.10587l.00423-.00871.04948-.1036.00391-.00862.04915-.10246.00521-.0105c.01628-.034.03288-.06885.04948-.10286l.00358-.00782.04883-.101.00716-.01481.0485-.1.00358-.00732.05111-.10458.00293-.00634c.05338-.109.10677-.21843.16048-.32723l.0013-.00253.05111-.10367.00488-.00977.05078-.10246.00424-.0083.04817-.09725.00912-.01823.04752-.09521.00716-.01416.04851-.09676.00748-.0149.04883-.097.00684-.01327.04915-.09757.00684-.01367.0498-.09839.00521-.01034.05111-.09993.00553-.01139c.01725-.03361.03451-.06714.05143-.10075l.00293-.00578.05046-.09815.00553-.01074.04948-.09651.00781-.01506.04948-.0957.00749-.01481.04915-.09506.00814-.01578.04883-.09392.00911-.01717c.016-.031.03288-.06331.04916-.09424l.00749-.01464.05013-.096.00748-.01392.05046-.09611.00716-.01383.05111-.09668.00651-.01221.05143-.09757.00618-.01189.05306-.09944.00293-.0057.05469-.103.00163-.00293.054-.10115.00488-.009.05208-.09677.00749-.0144c.0166-.03076.03418-.06315.05045-.09391l.00879-.01579.05046-.09351.00846-.016.05013-.09228.00944-.01726c.0166-.03076.03353-.062.05046-.09269l.00879-.01611.05013-.09237.00944-.01733.0511-.093.00814-.01473.05111-.09334.00879-.01571.05241-.09521.00553-.00969c.01791-.033.03548-.06437.05371-.09725l.00651-.012.05209-.09367.00488-.00863.05306-.09562.00814-.01424c.01692-.03052.03613-.06518.05338-.09562l.00651-.0118.05274-.09383.00911-.01612.05176-.09212.00911-.016.05046-.08968.01172-.02083.05078-.08936.00944-.017.05046-.08878.01269-.02181c.016-.028.03353-.05933.04981-.08732l.01106-.01937.05013-.088.0114-.01994.05241-.091.0052-.00935.054-.09343.00814-.01424.05241-.09066.00651-.01131.05306-.09139.01041-.018.05144-.08846.01106-.019.05079-.08724.01269-.0214.04981-.085.01334-.02279.04883-.08341.015-.025.04916-.08357.01269-.02132.05046-.08554.01334-.0227.05046-.0848.01237-.02059.05111-.0861.01237-.02067.05208-.0874.00814-.01343.05241-.08748.01009-.01685.05176-.08569.01041-.01742.05144-.08512.01432-.02376.05045-.08342.01335-.02189.05176-.08529.01237-.02075.05176-.08488.01269-.02083.05143-.08407.01465-.024.05078-.0826.01335-.02165.05208-.08472.013-.021c.01823-.02971.03386-.05534.05241-.085l.0127-.02058.05143-.08309.01465-.0236.0485-.07829.013-.02092.05176-.08268.00944-.01546.054-.08626.01237-.01962.05208-.08333.01432-.02287.05209-.0826.01432-.02262.05176-.0822.01432-.02254.05241-.08284.01432-.02263.05078-.08008.0166-.026.05176-.08105.01367-.02132.054-.0848.01107-.01709c.01855-.0293.03808-.05941.057-.0887l.00847-.01343.05664-.08814.01107-.01725.055-.08512.00846-.01294.055-.08529.01139-.01717.05566-.08586.01205-.0188.05306-.08138.016-.02449.05371-.08171.01334-.0205.054-.08236.01432-.02189.055-.08366.012-.01856.05469-.08292.0153-.02279.05436-.08219.0127-.019.05533-.08374.01335-.01977c.01758-.02678.03874-.05843.05664-.08513l.01042-.01554.05306-.07959.01692-.02515.05209-.07763.01074-.01612.05762-.08569.01041-.01562.05957-.08806.00912-.01367.05762-.08529.01334-.01985.05664-.0835.01237-.01823c.01986-.02872.03711-.05428.05664-.083l.014-.0205.05632-.08236.013-.01929.05566-.08138.01628-.02327.05468-.07984.014-.0205.05632-.08163.014-.02042.057-.08244.01139-.01628.054-.078.01693-.02425.05241-.07561.013-.01831.05631-.08089.015-.02156.05436-.07772.01758-.0249.05273-.0752.01953-.02791.05274-.07479.01757-.02482.05469-.07772.0166-.02344.055-.07755.01692-.02393.05534-.0778.01628-.02287.05631-.0791.01465-.02026.05664-.07967.01628-.02271.0511-.07137.02019-.02791.0498-.069.02051-.02857.04915-.06844.02149-.02946.05078-.07015.0192-.02653.05339-.07381.01986-.02726.05241-.07194.02115-.029.05209-.07154.02181-.0297.0511-.06966.02247-.03093.0511-.06974.02344-.03149.04948-.06706.02409-.033.04883-.06608.02408-.03231.04786-.06453.02376-.03231.0485-.06519.02344-.03141.04883-.06543.02278-.03052.05274-.07039.016-.02165.05631-.07471.01953-.02612.05437-.07218.02083-.02775.05273-.06991.02214-.02954.05436-.07161.01986-.02613.05469-.07243.0205-.02669.05567-.07308.01855-.02457.05567-.07276.02083-.02734.05664-.07373.0166-.02181.05078-.066.0267-.03459.04687-.061.026-.0337.0459-.05965.0293-.03768.0485-.06266.01986-.02555.05534-.07121.02181-.02824.055-.07039.02083-.02686.054-.06917.02376-.03019.05436-.0695.02019-.02556.05664-.072.02116-.02677.05533-.07015.02181-.02783.05306-.06682.02539-.0323.04851-.06112.02636-.033.04818-.06071.02865-.036.0472-.05892.02767-.03459.04883-.06095.02571-.03231.05274-.06559.0205-.02539.057-.0708.02148-.02686.055-.06819.02376-.02946.05339-.06576L189.7,138.273l.05274-.06486.02376-.0293.05566-.06819.02246-.02767.05567-.06812.02311-.0284.05664-.06909.01986-.02425.057-.06918.01791-.02164.06022-.07308.01367-.01685.05892-.07121.02083-.0249.05567-.0673.02116-.02547.05892-.07088.01953-.02377.05892-.07063.02116-.02531.05826-.06975.02149-.02563.057-.06771.02442-.029.056-.06665.02278-.0271.0573-.068.02246-.02662.05794-.06827.02279-.027.04948-.05827.0319-.03768.04752-.05591.03093-.03613.04687-.05509.03125-.03646.05046-.059.02636-.03068.05241-.061.02442-.02865.05761-.067.02279-.02612.05794-.06722.02312-.0267.05989-.06925.02051-.02368.05794-.0669.02539-.029.058-.06665.02246-.02563.05794-.06657.02441-.02767.05892-.06747.02149-.02433.05013-.05729.03353-.03809.04785-.05411.0306-.03492.04785-.0542.03353-.03784.04948-.05574.02441-.02767.05534-.06218.02864-.03214.054-.06071.02734-.03076.05534-.06185.028-.03125.056-.06267.02571-.02872.0573-.06348.02636-.02946.05729-.06348.02442-.02693.05924-.06576.02311-.02547.05925-.06543.02214-.02433.05631-.06209.02767-.0302.05273-.05778.028-.03084.05371-.05876.02832-.03076.05436-.05957.02409-.026.05957-.065.02507-.02726.05924-.06413.02474-.02669.05859-.06332.026-.0284.05891-.06323.02507-.02726.05924-.0634.026-.028.05794-.06242.02669-.0284.05925-.06348.02409-.02564.05566-.05908.02832-.03019.05306-.0564.02962-.03165.05306-.05607.0293-.03093.05469-.058.02506-.02645.0599-.063.02376-.02515.06152-.06453.02442-.02555.06152-.06454.02376-.02506.06185-.06454.02442-.02531.06022-.063.02669-.02775.05892-.06119.02734-.02832.05957-.06177.02637-.0271.05371-.05542.03288-.03418.05078-.05217.03483-.036.0472-.04817.03809-.03915.05045-.05184.03125-.032.05437-.05534.026-.02669.06087-.06209.02572-.026.06022-.06127.02734-.02776.06218-.06274.02376-.02392.06282-.06348.02474-.025.06316-.06372.02376-.02376.06315-.06331.02474-.02482.0651-.06519.01888-.019.06706-.06706.02051-.02034.06185-.06153.02506-.02474.05729-.05688.0306-.03052.057-.05615.02311-.02287.06283-.062.026-.02572.06185-.06111.02669-.026.06022-.05925.03-.02946.05924-.0577.02832-.02775.0599-.05859.03092-.03.0586-.05705.02962-.02889.05925-.05745.02994-.029.05632-.05461.03027-.02922.056-.054.03288-.03158.05241-.05021.03613-.03491.05143-.04915.03646-.03508.05274-.05029.02962-.02832.06055-.05786.027-.02572.06185-.05884.029-.02767.0599-.05656.03158-.02986.05891-.05575.0306-.02913.06022-.05672.03158-.02955.05762-.05428.03418-.0319.04785-.04492.04362-.041.04329-.04045.04395-.0411.05045-.047.03711-.03442.05209-.04834.03678-.03434.05046-.04655.04166-.03874.04883-.045.03255-.03011.0586-.05388.03157-.02905.06022-.05534.0319-.02938.05925-.05428.03223-.02954.06087-.05566.02962-.0271.0638-.05786.02637-.024.0651-.05924.02735-.02482.05924-.05355.03418-.03093.05274-.04769.03906-.03532.05143-.04622.03776-.0341.054-.0485.03678-.033.05143-.04606.041-.03654.054-.04826.029-.02572.06315-.05623.0293-.02629.06445-.05721.02865-.02547.06217-.05485.03288-.02921.06152-.0542.03093-.02735.06152-.054.03223-.02832.0638-.05616.026-.0227.05859-.05135.03711-.03239.05729-.05005.03028-.0262.05924-.05152.03353-.02929.06087-.05266.02311-.0201.06576-.05705.03092-.02644.06316-.05461.02864-.02466.06348-.05469.03222-.02775.06283-.05371.0306-.02637.06152-.05257.03614-.03084.06054-.0516.03125-.02669.0638-.054.0306-.026.06576-.05566.02637-.0223.06152-.05233.0332-.02783.05957-.05013.03288-.02767.05892-.04956.0345-.029.05925-.04972.03125-.02621.06217-.052.02963-.02466.067-.056.02735-.02262.068-.05648.02832-.02344.06673-.05525.0293-.02425.068-.05624.02637-.02181.06836-.05615.02865-.02376.06738-.05534.029-.0236.06217-.05095.03321-.02726.05729-.04671.03841-.03125.05567-.04517.03808-.03108.057-.04623.03353-.02726.0625-.05054.02734-.02221.068-.05469.0293-.02385.06706-.05387.03027-.02425.06608-.053.03125-.02506.06511-.05209.0332-.02653.06315-.05021.03451-.02767.06445-.05127.03125-.02482.06413-.05078.0332-.02612.05794-.0459.03939-.03117.05339-.04216.04264-.03352.05631-.04411.03939-.03093.054-.04231.04525-.0354.05175-.04053.041-.032.05631-.04387.03646-.02824.06348-.04931.03418-.02661.06348-.04916.03548-.02742.06478-.05.03255-.025.0651-.05013.03418-.02645.06706-.05126.02767-.02133.06771-.05184.03125-.02384.06445-.049.03223-.02458.05892-.04492.04069-.031.05859-.04443.03223-.02441.06608-.04981.02864-.02173.06934-.05224.02864-.02165.07-.05257.03-.02246.07064-.053.02767-.02059.071-.05322.02962-.02206.07031-.05224.03-.0223.069-.05127.03223-.02393.068-.05045.02963-.02189.06445-.04769.03613-.02653.0612-.04509.03581-.02612.06054-.04443.03907-.02881.06152-.045.029-.02116.07227-.05258.02539-.01871.07291-.053.02832-.02067.07129-.05152.0306-.02229.07064-.05087.029-.02107.07292-.05258.02767-.01985.07291-.05249.02767-.01978.07357-.05273.02735-.01953.07584-.05428.02116-.0149.08073-.05753.01921-.01359.07226-.05135.029-.02067.06641-.0468.03483-.02466.06575-.04646.02832-.01994.07227-.0507.02832-.0201.07324-.05127.0293-.02067.07129-.04981.03125-.02181.07129-.04972.03092-.0214.07129-.04965.02962-.02059.0739-.05118.028-.01937.07292-.05029.03092-.02125.07129-.04907.02832-.01953.069-.04736.03093-.02124.07-.04777.02963-.02027.069-.04712.03027-.02067.07324-.0498.02409-.01636.07748-.05249.026-.01766.07812-.05281.02507-.01685.07454-.05037.0306-.02059.07357-.0494.02929-.01953.07422-.04989.02832-.0188.07715-.05143.02442-.01636.07747-.05159.02734-.01815.0778-.05159.02246-.0149.071-.04687.03255-.02149.07129-.047.02539-.01685.07194-.0472.03451-.02254.06966-.04574.02864-.01872.0739-.04825.0319-.02076.07291-.0476.0306-.01986.07292-.04728.0332-.02157.07259-.047.0306-.01961.07324-.04736.03256-.021.07422-.0476.028-.018.07064-.04533.03776-.024.0612-.03906.041-.0262.06218-.0398.04036-.02555.06673-.0424.02832-.01782.07487-.04737.028-.01774.07715-.04874.02734-.01717.0765-.04818.03092-.01937.07422-.04663.03125-.01945.07454-.04663.03191-.01978.07421-.04622.03158-.01961.07422-.04623.0319-.01969.07487-.04631.02962-.01823.07194-.04435.03353-.02067.06576-.04053.03938-.02408.06511-.03988.0345-.02124.07162-.04354.02864-.0175.07618-.04646.02767-.01677.07877-.04793.028-.01685.0778-.0472.02929-.01758.07748-.04671.0306-.01839.07617-.04574.02962-.018.0778-.04647.02962-.01774.0765-.04574.0306-.01814.0765-.04541.03092-.0184.068-.04036.03744-.02222.06868-.04061.03679-.02164.06738-.03972.03613-.02124.07129-.042.02865-.01676.07617-.04468.03223-.01872.07682-.04476.03125-.01831.07519-.04378.03321-.01929.07584-.04378.03256-.0188.07421-.043.03353-.01937.07813-.045.02669-.01522.0804-.0463.0293-.01669.07878-.04508.02864-.0162.06869-.03922.03906-.02222.07324-.04166.02377-.01351.07942-.04484.02735-.01547.082-.0463.02409-.01351.08138-.04574.02929-.01652.08171-.04581.02506-.014.08269-.04614.02767-.01547.08138-.04524.02767-.01538.0804-.0446.0293-.01636.082-.04524.02409-.01327.08431-.04647.027-.01489.08236-.04525.02311-.01261.07715-.04224.0332-.01806.07618-.04167.02474-.01327.08528-.04646.02051-.01107.08659-.047.02409-.01294.083-.04484.029-.01554.08073-.04338.02864-.01546.08236-.04419.028-.01489.08171-.04362.02864-.0153.08106-.04321.03027-.016.08138-.04322.02572-.01359.08626-.04549.02214-.0118.08431-.04427.02474-.0131.07747-.04069.03288-.01709.07487-.03923.02962-.01546.07975-.04159.02767-.01432.08138-.04223.03125-.0162.07715-.03988.03548-.01847.07715-.03979.0332-.01693.07878-.04061.03158-.01611.08007-.041.03223-.01644.07878-.0402.03287-.01668.08041-.04077.02929-.015.07976-.04028.02962-.01514.0765-.03857.03353-.01685.07324-.03678.03613-.01807.0778-.039.02376-.01188.085-.0424.02865-.01424.08561-.04273.02507-.01228.084-.04167.0306-.01506.08236-.04077.02929-.01432.08269-.04077.02962-.01457.08431-.04126.02734-.01335.08334-.04077.03027-.01464.08561-.04175.02083-.01.09115-.04411.01856-.009.09667-.04672.00424-.00195.09765-.047.01726-.00822.09342-.04484.01953-.00919.0905-.0433.02408-.01155.08952-.04257.02246-.01057.08887-.04216.02572-.01221.08854-.04174.02311-.01083.0905-.04264.02278-.01074.09115-.04265.02083-.00968.0918-.04281.02344-.01106.08984-.04175.02279-.01042.08431-.03906.02832-.01319.08105-.03727.029-.01343.08171-.03759.02832-.01294.08594-.03939.02474-.01123.08951-.04094.02474-.01114.08985-.04078.02343-.01066.09115-.04134.02311-.01041.09082-.04086.02344-.01058.09082-.04085.02344-.01042.09049-.04061.02377-.01049.09114-.04069.02279-.01.09082-.04037.02213-.00976.08887-.03931.01986-.00879.09179-.04028.01661-.00733.09537-.04191.01953-.00854.09473-.04134.02051-.00895.09212-.04.02442-.01066.08951-.03874.0267-.01156.08691-.0376.02865-.01228.08984-.03858.02279-.00985.0931-.03979.02148-.0092.09408-.04.02083-.00887.09473-.04028.01888-.00789.09863-.04183.012-.005.09505-.04.01954-.00821.09407-.03947.01725-.00717.09278-.03881.02506-.0105.09212-.03833.02344-.00969.09082-.03768.02637-.0109.09017-.03711.02572-.01058.08984-.03695.027-.01114.09147-.03736.02246-.00919.09212-.03752.02669-.01091.09017-.03662.02637-.01058.08464-.03418.0319-.01285.08268-.03329.029-.01164.08333-.03336.0306-.01213.085-.034.02442-.00969.09082-.036.02734-.011.0931-.03679.02149-.00846.09342-.03687.02539-.00993.09212-.03613.02507-.00968.09082-.03557.02767-.01074.09114-.0354.02409-.00936.09375-.03629.02344-.009.09408-.03629.02246-.00855.09179-.03523.02409-.0092.09245-.03532.0166-.00643.0957-.03629.02051-.00773.09571-.0363.02115-.008.09343-.03523.02669-.01009.09245-.03467.02409-.009.09375-.03491.02539-.0096.09245-.03426.02506-.00936.09343-.03451.02474-.00919.09537-.03516.01921-.00708.09993-.03662.01693-.00618.10124-.03695.0166-.006.09733-.0354.02083-.00749.09115-.033.02213-.008.09473-.03409.02018-.00733.097-.03467.02279-.00822.09342-.03328.02669-.00952.09212-.0328.0267-.00944.09375-.033.02376-.00854.095-.03337.02539-.00895.09147-.032.0293-.01018.09212-.03214.02474-.00855.09538-.03312.02181-.00757.09863-.03409.01823-.00627.09115-.03125.02832-.00977.09017-.03076.02116-.00724.0983-.03345.01986-.00667.099-.03353.02148-.00732.09441-.03182.027-.00912.09473-.03166.02376-.008.09636-.03215.02311-.00765.09831-.03255.02083-.007.09733-.03206.02409-.008.09831-.03239.0179-.00586.10156-.03312.01856-.0061.10449-.03394.00814-.00268.09928-.03215.02507-.00813.09472-.03052.01823-.00586.10091-.03231.02051-.00659.10124-.03223.01823-.00586.09961-.03157.02311-.00733.09766-.03084.02246-.00708.09733-.0306.02409-.00749.099-.03092.01921-.006.09961-.03093.02441-.00748.09864-.03052.01888-.00586.10156-.03125.01953-.00594.09766-.02995.01855-.00562.097-.02954.02148-.00643.098-.0297.02116-.00643.09766-.02938.02539-.00765.096-.02872.02474-.00741.09537-.0284.02865-.00846.09342-.02767.02767-.00822.09506-.02792.02571-.00765.09636-.02815.02441-.00717.09863-.02872.02214-.00643.10058-.02914.01823-.00529.10515-.03027.01237-.00358.10481-.02995.01172-.00342.10515-.03.01562-.0044.10319-.02921.02051-.00578.10091-.0284.02148-.00611.099-.02775.02507-.00692.09668-.027.02506-.00692.09961-.02751.02181-.0061.10124-.02783.02051-.00562.10156-.02775.02181-.006.10124-.02759.0192-.00513.10645-.0288.01041-.00277.11133-.02995.00879-.00244.1097-.0293.00879-.00236.10872-.02881.01563-.00423.1084-.02856.014-.00366.10611-.02784.01823-.0048.10482-.02742.01791-.00464.10351-.02686.02051-.00529.10644-.02742.013-.00334.10872-.02783.01562-.004.10775-.02751.015-.00374.10872-.02751.013-.00325.113-.0284.00325-.00073.11556-.02889.00846-.0022.11133-.02759.01042-.0026.10775-.02653.01823-.00448.10579-.026.01758-.00423.10449-.02556.02018-.0048.10449-.02531.01889-.00455.10253-.02466.02344-.00562.10352-.02465.01758-.00424.10709-.02539.01628-.00382.1084-.02556.014-.00333.1097-.02564.015-.0035.11068-.02571.00846-.002.113-.026.00586-.00138.11231-.02572.014-.00325.10579-.02409.02083-.00472.10515-.02376.01823-.00407.10644-.02393.01856-.00415.10481-.02344.02051-.00455.10319-.02279.02311-.00513.10384-.02278.01823-.00407.1084-.0236.01433-.00309.11-.02385.01432-.00309.112-.02417.00912-.00187.11719-.02507.00162-.00032.11947-.02531.00521-.00114.11393-.024.013-.00269.10872-.0227.01823-.00383.1084-.02246.016-.00325.1097-.02263.015-.003.11-.02246.016-.00333.10808-.02181.0192-.00391.10645-.0214.01855-.00375.10742-.0214.01758-.0035.10938-.02165.014-.00276.10645-.02092.02148-.00415.1058-.02067.00911-.00171.113-.02189.01335-.0026.111-.02124.01562-.003.10677-.02027.02149-.00407.10482-.01977.02148-.00407.10547-.0197.01986-.00374.10742-.01994.01823-.00333.10644-.01962.02149-.0039.10709-.01953.01628-.003.1097-.01978.016-.00285.11361-.02034.00651-.00122.11979-.02124.00488-.0009.11751-.02075.00586-.001.11459-.02.01432-.00252.11165-.01929.015-.0026.10775-.01847.02181-.00375.10579-.01806.02018-.00334.10612-.01791.02149-.00358.10774-.018.01693-.00285.109-.018.01986-.00334.109-.01782.01464-.00236.11329-.0184.01237-.002.11523-.01847.00977-.00163.1123-.01782.01237-.002.11426-.018.00976-.00155.11263-.01758.01726-.00268.11132-.01717.015-.00228.1123-.01725.0153-.00236.11133-.01685.01693-.00252.11-.01652.01856-.00277.1084-.016.0205-.00309.10678-.01563.02181-.00317.10774-.01571.0166-.00244.11231-.01611.013-.00188.11621-.01652.00651-.00089.11849-.01668.00521-.00074.11979-.01668.00846-.00122.11491-.01579.0153-.00211.11035-.015.01921-.0026.109-.01473.01921-.00252.109-.01457.01921-.00252.11-.01449.01757-.00228.11-.01432.01986-.00252.1097-.01408.01627-.00212.11361-.0144.013-.00163.11491-.01441.01335-.0017.11328-.014.01009-.0013.113-.01376.01432-.00179.1136-.01367.01563-.00187.11035-.01318.01986-.00237.1097-.01293.01855-.0022.109-.0127.02084-.00236.10937-.01253.01888-.0022.109-.01229.02116-.00236.11068-.01237.0153-.0017.113-.01246.01693-.00187.11523-.01245.00749-.00081.12272-.01319.0013-.00016c.084-.00887.166-.0175.25-.0262l.00879-.0009.12045-.01229.00846-.00089.11556-.01164.01693-.00171.11165-.01115.01823-.00179.10807-.01058.02474-.00236.10742-.01041.01953-.00188.11068-.01041.01921-.00187.1123-.01042.01465-.00138.11621-.01066.01139-.00106.12045-.01091.00358-.00024.12663-.01131h.00032l.123-.01075.00814-.00073.11751-.01.01432-.00122.11393-.0096.01661-.00138.113-.00936.01791-.00147.111-.009.01985-.00163.111-.00879.01888-.00146.1123-.00879.01693-.0013.11523-.00887.01335-.001.11589-.00871.01562-.00114.11523-.00846.01433-.00106.11751-.00846.00846-.00065c.082-.00578.16537-.01164.2474-.01726l.00846-.00057.11914-.008.01237-.00082.11654-.00765.015-.001.11589-.00749.01465-.0009.11426-.00724.01855-.00114.11165-.00683.01921-.00122.113-.00676.01692-.001.11556-.00675.01335-.00073.11719-.00668.01432-.00081.11784-.00651.00976-.00057.12305-.00659.00195-.00008.12565-.00659.00456-.00025.12305-.00626.00911-.00041.11621-.00578.01823-.00081.11231-.00537.01953-.001.11165-.00513.01953-.00089.11361-.00505.01693-.00073.113-.005.02019-.00081.1136-.00472.01563-.00065.11621-.00464.014-.00057.12011-.00464.00619-.00024.12435-.00464.00879-.00033c.08528-.00309.16438-.00586.25-.0087l.00781-.00025.12272-.004.00912-.00032.11848-.00366.01563-.00049.11654-.00342.01464-.00041.11622-.00325.01692-.00049.11621-.00309.01465-.00033.11524-.00293.01953-.00049.11328-.0026.01758-.00041.11621-.00252.01367-.00032.11947-.00245.00976-.00016.12272-.00236.00749-.00016.12142-.00212.00651-.00008.12305-.00195.00976-.00016.1211-.00171.01171-.00017.11817-.00154.016-.00017.11458-.0013.01953-.00024.11263-.00114.02051-.00016.112-.0009.02083-.00016.113-.00082.01888-.00008.11491-.00065h.01595l.11816-.00049h.01172l.12207-.00032h.00684l.12728-.00008h0a21.33333,21.33333,0,0,0,0-42.66667Z"/>
      <path class="cls-4" d="M255.99984,64a128.21927,128.21927,0,0,0-61.39942,15.66911,21.33334,21.33334,0,0,0,20.43848,37.4528,85.10722,85.10722,0,0,1,9.10026-4.30868l.00033-.00008c.07552-.03035.14746-.05933.223-.08944l.014-.00553.05892-.02352.01368-.00545.06022-.02393.01367-.00545c.04785-.019.09473-.03768.1429-.05656l.01433-.00578.05989-.02352.01367-.00545.06348-.025.00846-.00334.0739-.029.00325-.0013.06511-.02547.02116-.00814.05175-.02018.01953-.00765.05372-.02092.01888-.00724.069-.02678.01627-.00634.05241-.02027.026-.00993.0459-.01782.02507-.0096.04752-.01823.029-.01115.0599-.023.02864-.011.041-.01563.03125-.012.04134-.01579.02669-.01017.03972-.01506.06836-.02588.02636-.01.03646-.01375.03321-.01261.03483-.013.03613-.01359.03516-.01335.02571-.00969.08268-.03084.02019-.00757.03906-.01473.03157-.01172.04037-.01505.02279-.00855.04589-.017.00456-.00163.1071-.0398.01432-.0052.04785-.01766.01823-.00668.04655-.01717.02246-.00822c.05274-.01953.1071-.03939.16016-.05875l.00976-.00359.05144-.01879.01432-.00521.05469-.01986.00162-.00065c.08041-.02922.16211-.05884.24284-.08781l.00293-.00106.05892-.02124.00358-.0013c.07975-.02865.16016-.05737.23991-.08577l.00684-.00245c.08007-.0284.16048-.05688.24056-.085l.00325-.00122.06022-.02116.001-.00032a84.8258,84.8258,0,0,1,18.16081-4.20752l.00195-.00025.06315-.00748.00879-.001c.085-.01.16927-.01978.25456-.02954l.013-.00147.0612-.007.001-.00008.19987-.02246.00065-.00008.06185-.00683.00912-.001.06022-.00667.01042-.00114.18684-.02027.00879-.00089.05567-.00594.01855-.002.05632-.006.00748-.00073.1836-.01921.01725-.00179.05143-.00529.02344-.00236.04883-.005.02767-.00285.16894-.01693.01563-.00154.05306-.00521.02116-.00212.05534-.00537.002-.00024.18913-.01823.01757-.00171.05339-.005.01855-.0017.05469-.00521.01107-.001.1123-.01042.015-.00138.04818-.00439.02864-.00261.04395-.004.0332-.003.04362-.004.03-.0026.08691-.00773.02376-.00212.04818-.00423.02832-.00244.04688-.00407.02734-.00236.04655-.004.02832-.00244.09082-.00773.02214-.00187.04948-.00415.02669-.0022.04525-.00374.03287-.00269.0446-.00366.0026-.00024.11947-.00969.01693-.0013.04915-.00391.02962-.00236.0446-.0035.03223-.0026.04329-.00334.069-.00529.03418-.00268.04362-.00334.03906-.00293.03483-.0026.04265-.00318.0332-.00252.07715-.00569.03418-.00245.04459-.00325.03028-.0022.04557-.00325.03092-.0022.04493-.00326.03385-.00236.05111-.00358.05924-.00407.04167-.00284.03418-.00236.04264-.00285.03613-.00244.03874-.00261.0446-.00293.056-.00374.04687-.003.041-.00269.0345-.0022.04232-.00268.03646-.00236.04036-.00252.03646-.00228.07487-.00464.03386-.002.042-.00252.03548-.0022.04329-.00252.03288-.00195.04167-.00252.05436-.00318.04134-.00236.05371-.00309.03548-.002.03939-.00228.04-.0022.04037-.00228.0358-.00195.07325-.004.02408-.00122.05372-.00293.03157-.00163.04785-.00252.0319-.00163.05209-.00268.02506-.00131.07552-.00382.02572-.00122.05273-.0026.03353-.00163.04232-.002.03743-.00179.04525-.00219.0319-.00147.07325-.00342.028-.0013.05143-.00228.02962-.00138.05046-.0022.0306-.00138.05273-.00228.02539-.00106.07487-.00317.0267-.00114.05338-.0022.03028-.00122.04752-.002.0319-.00122.06022-.00236.01726-.00074.07812-.003.02149-.00073.05729-.0022.028-.001.04916-.00179.0332-.00122.05892-.00212.01758-.00057.07584-.0026.02832-.001.05209-.00171.02994-.001.04721-.00154.03352-.00106.0625-.002.02507-.00073.06413-.00195.0332-.001.04655-.00138.03157-.0009.05046-.00146.02962-.00081.0765-.00212.00846-.00016.07064-.00188.02376-.00065.05827-.00146.02474-.00065.05339-.0013.02832-.00066.0765-.00179.015-.00032.06348-.00147.029-.00057.05176-.00113.029-.00066.054-.001.02539-.00049.07878-.00155.012-.00024.06511-.00122.02864-.00049.05274-.0009.028-.00048.055-.0009.02506-.00041.07748-.00122.0192-.00024.05925-.0009.02864-.0004.05534-.00074.02279-.00032.0664-.00082.01465-.00016.0804-.00089.01661-.00017.06054-.00065.0293-.00032.05306-.00049.02734-.00025.05632-.00048.02441-.00017.07617-.00057.02344-.00016.058-.00041.02571-.00016.05762-.00032.02278-.00009.06869-.00032.01237-.00008.07943-.00025.0205-.00008.05827-.00008.02735-.00008.05761-.00008h.02214l.08008-.00008h0a21.33333,21.33333,0,0,0,0-42.66667Z"/>
    </g>
  </g>
</svg>
