<svg id="visual" viewBox="0 0 960 540" width="960" height="540" xmlns="http://www.w3.org/2000/svg" xmlns:xlink="http://www.w3.org/1999/xlink" version="1.1"><rect x="0" y="0" width="960" height="540" fill="#ffffff"></rect><path d="M583 0L524.5 22.5C466 45 349 90 278 135C207 180 182 225 154.3 270C126.7 315 96.3 360 111.3 405C126.3 450 186.7 495 216.8 517.5L247 540L0 540L0 517.5C0 495 0 450 0 405C0 360 0 315 0 270C0 225 0 180 0 135C0 90 0 45 0 22.5L0 0Z" fill="#f7e59d" stroke-linecap="round" stroke-linejoin="miter"></path></svg>