<svg id="visual" viewBox="0 0 960 540" width="960" height="540" xmlns="http://www.w3.org/2000/svg" xmlns:xlink="http://www.w3.org/1999/xlink" version="1.1"><g transform="translate(-196.30886020923992 -12.43528088704096)"><path d="M446.1 -650C446.1 -531.6 223.1 -265.8 267.4 -42.9C311.8 180 623.5 360 680.2 515.7C736.9 671.4 538.4 802.7 376.7 728.7C215 654.7 90.1 375.3 -3.4 240.8C-96.9 106.4 -158.9 116.9 -214.1 90.2C-269.3 63.5 -317.8 -0.6 -288.8 -31C-259.7 -61.4 -153 -58.3 -91.9 -165.9C-30.9 -273.4 -15.4 -491.7 103.8 -615.4C223 -739.2 446.1 -768.3 446.1 -650" fill="#f7e59d"></path></g></svg>