<svg id="visual" viewBox="0 0 960 540" width="960" height="540" xmlns="http://www.w3.org/2000/svg" xmlns:xlink="http://www.w3.org/1999/xlink" version="1.1"><rect x="0" y="0" width="960" height="540" fill="#ffffff"></rect><path d="M593 0L619.5 18C646 36 699 72 631.5 108C564 144 376 180 259.3 216C142.7 252 97.3 288 98.5 324C99.7 360 147.3 396 160 432C172.7 468 150.3 504 139.2 522L128 540L0 540L0 522C0 504 0 468 0 432C0 396 0 360 0 324C0 288 0 252 0 216C0 180 0 144 0 108C0 72 0 36 0 18L0 0Z" fill="#f7e59d" stroke-linecap="round" stroke-linejoin="miter"></path></svg>