<?xml version="1.0" standalone="no"?>
<svg xmlns:xlink="http://www.w3.org/1999/xlink" id="wave" style="transform:rotate(0deg); transition: 0.3s" viewBox="0 0 1440 490" version="1.1" xmlns="http://www.w3.org/2000/svg"><defs><linearGradient id="sw-gradient-0" x1="0" x2="0" y1="1" y2="0"><stop stop-color="rgba(207, 231, 215, 1)" offset="0%"/><stop stop-color="rgba(207, 231, 215, 1)" offset="100%"/></linearGradient></defs><path style="transform:translate(0, 0px); opacity:1" fill="url(#sw-gradient-0)" d="M0,245L24,269.5C48,294,96,343,144,359.3C192,376,240,359,288,302.2C336,245,384,147,432,106.2C480,65,528,82,576,138.8C624,196,672,294,720,318.5C768,343,816,294,864,228.7C912,163,960,82,1008,73.5C1056,65,1104,131,1152,179.7C1200,229,1248,261,1296,228.7C1344,196,1392,98,1440,106.2C1488,114,1536,229,1584,236.8C1632,245,1680,147,1728,130.7C1776,114,1824,180,1872,236.8C1920,294,1968,343,2016,302.2C2064,261,2112,131,2160,114.3C2208,98,2256,196,2304,269.5C2352,343,2400,392,2448,367.5C2496,343,2544,245,2592,204.2C2640,163,2688,180,2736,204.2C2784,229,2832,261,2880,285.8C2928,310,2976,327,3024,285.8C3072,245,3120,147,3168,130.7C3216,114,3264,180,3312,220.5C3360,261,3408,278,3432,285.8L3456,294L3456,490L3432,490C3408,490,3360,490,3312,490C3264,490,3216,490,3168,490C3120,490,3072,490,3024,490C2976,490,2928,490,2880,490C2832,490,2784,490,2736,490C2688,490,2640,490,2592,490C2544,490,2496,490,2448,490C2400,490,2352,490,2304,490C2256,490,2208,490,2160,490C2112,490,2064,490,2016,490C1968,490,1920,490,1872,490C1824,490,1776,490,1728,490C1680,490,1632,490,1584,490C1536,490,1488,490,1440,490C1392,490,1344,490,1296,490C1248,490,1200,490,1152,490C1104,490,1056,490,1008,490C960,490,912,490,864,490C816,490,768,490,720,490C672,490,624,490,576,490C528,490,480,490,432,490C384,490,336,490,288,490C240,490,192,490,144,490C96,490,48,490,24,490L0,490Z"/></svg>