<?xml version="1.0" standalone="no"?>
<svg xmlns:xlink="http://www.w3.org/1999/xlink" id="wave" style="transform:rotate(0deg); transition: 0.3s" viewBox="0 0 1440 490" version="1.1" xmlns="http://www.w3.org/2000/svg"><defs><linearGradient id="sw-gradient-0" x1="0" x2="0" y1="1" y2="0"><stop stop-color="rgba(247, 229, 157, 1)" offset="0%"/><stop stop-color="rgba(247, 229, 157, 1)" offset="100%"/></linearGradient></defs><path style="transform:translate(0, 0px); opacity:1" fill="url(#sw-gradient-0)" d="M0,147L26.7,122.5C53.3,98,107,49,160,57.2C213.3,65,267,131,320,163.3C373.3,196,427,196,480,187.8C533.3,180,587,163,640,138.8C693.3,114,747,82,800,122.5C853.3,163,907,278,960,285.8C1013.3,294,1067,196,1120,138.8C1173.3,82,1227,65,1280,81.7C1333.3,98,1387,147,1440,155.2C1493.3,163,1547,131,1600,114.3C1653.3,98,1707,98,1760,138.8C1813.3,180,1867,261,1920,269.5C1973.3,278,2027,212,2080,196C2133.3,180,2187,212,2240,261.3C2293.3,310,2347,376,2400,392C2453.3,408,2507,376,2560,343C2613.3,310,2667,278,2720,277.7C2773.3,278,2827,310,2880,277.7C2933.3,245,2987,147,3040,98C3093.3,49,3147,49,3200,65.3C3253.3,82,3307,114,3360,106.2C3413.3,98,3467,49,3520,57.2C3573.3,65,3627,131,3680,179.7C3733.3,229,3787,261,3813,277.7L3840,294L3840,490L3813.3,490C3786.7,490,3733,490,3680,490C3626.7,490,3573,490,3520,490C3466.7,490,3413,490,3360,490C3306.7,490,3253,490,3200,490C3146.7,490,3093,490,3040,490C2986.7,490,2933,490,2880,490C2826.7,490,2773,490,2720,490C2666.7,490,2613,490,2560,490C2506.7,490,2453,490,2400,490C2346.7,490,2293,490,2240,490C2186.7,490,2133,490,2080,490C2026.7,490,1973,490,1920,490C1866.7,490,1813,490,1760,490C1706.7,490,1653,490,1600,490C1546.7,490,1493,490,1440,490C1386.7,490,1333,490,1280,490C1226.7,490,1173,490,1120,490C1066.7,490,1013,490,960,490C906.7,490,853,490,800,490C746.7,490,693,490,640,490C586.7,490,533,490,480,490C426.7,490,373,490,320,490C266.7,490,213,490,160,490C106.7,490,53,490,27,490L0,490Z"/></svg>